<svg xmlns="http://www.w3.org/2000/svg" version="1.1" xmlns:xlink="http://www.w3.org/1999/xlink" xmlns:svgjs="http://svgjs.dev/svgjs" width="1500" height="1500" viewBox="0 0 1500 1500"><rect width="1500" height="1500" fill="#ffffff"></rect><g transform="matrix(0.6666666666666666,0,0,0.6666666666666666,249.39393939393938,636.0697755339318)"><svg viewBox="0 0 396 90" data-background-color="#ffffff" preserveAspectRatio="xMidYMid meet" height="340" width="1500" xmlns="http://www.w3.org/2000/svg" xmlns:xlink="http://www.w3.org/1999/xlink"><g id="tight-bounds" transform="matrix(1,0,0,1,0.2400000000000091,0.23700089093884458)"><svg viewBox="0 0 395.52 89.5259982181223" height="89.5259982181223" width="395.52"><g><svg viewBox="0 0 552.9070315423426 125.15057119904695" height="89.5259982181223" width="395.52"><g><rect width="5.169743010553714" height="108.6690922133548" x="138.68392986541792" y="8.240739492846075" fill="#003231" opacity="1" stroke-width="0" stroke="transparent" fill-opacity="1" class="rect-qz-0" data-fill-palette-color="primary" rx="1%" id="qz-0" data-palette-color="#003231"></rect></g><g transform="matrix(1,0,0,1,157.3870315423426,17.29649717729231)"><svg viewBox="0 0 395.52 90.55757684446233" height="90.55757684446233" width="395.52"><g id="textblocktransform"><svg viewBox="0 0 395.52 90.55757684446233" height="90.55757684446233" width="395.52" id="textblock"><g><svg viewBox="0 0 395.52 57.32627910660541" height="57.32627910660541" width="395.52"><g transform="matrix(1,0,0,1,0,0)"><svg width="395.52" viewBox="2.75 -35 315.62 45.75" height="57.32627910660541" data-palette-color="#003231"><path d="M18.55-35Q21.2-35 23.2-34.13 25.2-33.25 26.85-31.5L26.85-31.5 24.25-29Q22.85-30.2 21.55-30.75 20.25-31.3 18.65-31.3L18.65-31.3Q14.75-31.3 12.23-28.38 9.7-25.45 8.58-21.1 7.45-16.75 7.45-12.3L7.45-12.3Q7.45-7.65 9.18-5.45 10.9-3.25 13.9-3.25L13.9-3.25Q15.9-3.25 17.43-3.98 18.95-4.7 20.9-6.1L20.9-6.1 22.8-3.1Q18.6 0.6 13.45 0.6L13.45 0.6Q8.55 0.6 5.65-2.85 2.75-6.3 2.75-12.6L2.75-12.6Q2.75-17.9 4.45-23.05 6.15-28.2 9.7-31.6 13.25-35 18.55-35L18.55-35ZM36.5 0.6Q32.2 0.6 29.87-2.15 27.55-4.9 27.55-9.7L27.55-9.7Q27.55-13.6 28.85-17.55 30.15-21.5 33.02-24.2 35.9-26.9 40.35-26.9L40.35-26.9Q44.6-26.9 46.92-24.18 49.25-21.45 49.25-16.65L49.25-16.65Q49.25-12.8 47.97-8.83 46.7-4.85 43.82-2.13 40.95 0.6 36.5 0.6L36.5 0.6ZM36.65-2.95Q39.6-2.95 41.4-5.25 43.2-7.55 43.97-10.8 44.75-14.05 44.75-17.1L44.75-17.1Q44.75-23.35 40.15-23.35L40.15-23.35Q37.2-23.35 35.4-21.08 33.6-18.8 32.82-15.58 32.05-12.35 32.05-9.25L32.05-9.25Q32.05-2.95 36.65-2.95L36.65-2.95ZM60.3 0.6Q57.6 0.6 56.02-1.05 54.45-2.7 54.45-5.6L54.45-5.6Q54.45-6.05 54.55-7.15L54.55-7.15 57.25-26.35 61.6-26.35 58.9-7.05Q58.8-6.55 58.8-5.7L58.8-5.7Q58.8-2.85 61.2-2.85L61.2-2.85Q63.15-2.85 64.9-4.6 66.65-6.35 68.34-9L68.34-9 70.8-26.35 75.15-26.35 71.45 0 67.75 0 68.09-4.7Q66.34-2.1 64.55-0.75 62.75 0.6 60.3 0.6L60.3 0.6ZM78.14 10.75L83.34-26.35 87.14-26.35 86.94-23.15Q90.19-26.9 94.29-26.9L94.29-26.9Q97.69-26.9 99.64-24.4 101.59-21.9 101.59-17.3L101.59-17.3Q101.59-13 100.24-8.9 98.89-4.8 95.97-2.1 93.04 0.6 88.49 0.6L88.49 0.6Q86.19 0.6 83.99-0.3L83.99-0.3 82.49 10.15 78.14 10.75ZM88.59-2.9Q91.49-2.9 93.42-5.13 95.34-7.35 96.22-10.7 97.09-14.05 97.09-17.5L97.09-17.5Q97.09-23.4 93.14-23.4L93.14-23.4Q90.04-23.4 86.74-19.55L86.74-19.55 84.54-3.65Q86.44-2.9 88.59-2.9L88.59-2.9ZM114.94 0.6Q110.64 0.6 108.32-2.15 105.99-4.9 105.99-9.7L105.99-9.7Q105.99-13.6 107.29-17.55 108.59-21.5 111.47-24.2 114.34-26.9 118.79-26.9L118.79-26.9Q123.04-26.9 125.37-24.18 127.69-21.45 127.69-16.65L127.69-16.65Q127.69-12.8 126.42-8.83 125.14-4.85 122.27-2.13 119.39 0.6 114.94 0.6L114.94 0.6ZM115.09-2.95Q118.04-2.95 119.84-5.25 121.64-7.55 122.42-10.8 123.19-14.05 123.19-17.1L123.19-17.1Q123.19-23.35 118.59-23.35L118.59-23.35Q115.64-23.35 113.84-21.08 112.04-18.8 111.27-15.58 110.49-12.35 110.49-9.25L110.49-9.25Q110.49-2.95 115.09-2.95L115.09-2.95ZM147.39-26.95Q149.99-26.95 151.54-25.25 153.09-23.55 153.09-20.6L153.09-20.6Q153.09-19.7 152.94-18.8L152.94-18.8 150.29 0 145.94 0 148.59-18.75Q148.69-19.75 148.69-20.15L148.69-20.15Q148.69-23.25 146.19-23.25L146.19-23.25Q142.69-23.25 138.79-16.05L138.79-16.05 136.54 0 132.19 0 135.89-26.35 139.64-26.35 139.24-21.35Q141.04-24.05 142.99-25.5 144.94-26.95 147.39-26.95L147.39-26.95ZM168.28-26.9Q172.94-26.9 176.24-23.7L176.24-23.7 174.09-21.15Q171.38-23.4 168.28-23.4L168.28-23.4Q166.13-23.4 164.86-22.4 163.59-21.4 163.59-19.6L163.59-19.6Q163.59-18.2 164.63-17.32 165.69-16.45 168.28-15.5L168.28-15.5Q171.53-14.35 173.09-12.6 174.63-10.85 174.63-8L174.63-8Q174.63-5.35 173.28-3.4 171.94-1.45 169.61-0.43 167.28 0.6 164.53 0.6L164.53 0.6Q159.19 0.6 155.63-3.15L155.63-3.15 158.13-5.7Q161.13-2.95 164.69-2.95L164.69-2.95Q167.44-2.95 168.76-4.38 170.09-5.8 170.09-7.6L170.09-7.6Q170.09-9.45 169.06-10.43 168.03-11.4 165.23-12.4L165.23-12.4Q161.98-13.6 160.56-15.2 159.13-16.8 159.13-19.35L159.13-19.35Q159.13-21.3 160.23-23.03 161.34-24.75 163.41-25.83 165.48-26.9 168.28-26.9L168.28-26.9ZM191.33-33.95Q195.53-33.95 197.71-31.28 199.88-28.6 199.88-23.95L199.88-23.95Q199.88-18.55 198.41-13.85 196.93-9.15 192.53-5.08 188.13-1 179.98 1.15L179.98 1.15 179.28-2.15Q185.73-4.15 189.53-7.4 193.33-10.65 194.78-16.25L194.78-16.25Q191.58-12.2 187.48-12.2L187.48-12.2Q184.28-12.2 182.26-14.58 180.23-16.95 180.23-20.8L180.23-20.8Q180.23-24.1 181.48-27.13 182.73-30.15 185.23-32.05 187.73-33.95 191.33-33.95L191.33-33.95ZM188.43-15.65Q191.93-15.65 195.33-20.1L195.33-20.1Q195.48-22.5 195.48-24L195.48-24Q195.48-27.35 194.43-28.9 193.38-30.45 191.18-30.45L191.18-30.45Q187.73-30.45 186.16-27.43 184.58-24.4 184.58-20.7L184.58-20.7Q184.58-18.25 185.58-16.95 186.58-15.65 188.43-15.65L188.43-15.65ZM215.03-33.95Q219.23-33.95 221.41-31.28 223.58-28.6 223.58-23.95L223.58-23.95Q223.58-18.55 222.1-13.85 220.63-9.15 216.23-5.08 211.83-1 203.68 1.15L203.68 1.15 202.98-2.15Q209.43-4.15 213.23-7.4 217.03-10.65 218.48-16.25L218.48-16.25Q215.28-12.2 211.18-12.2L211.18-12.2Q207.98-12.2 205.95-14.58 203.93-16.95 203.93-20.8L203.93-20.8Q203.93-24.1 205.18-27.13 206.43-30.15 208.93-32.05 211.43-33.95 215.03-33.95L215.03-33.95ZM212.13-15.65Q215.63-15.65 219.03-20.1L219.03-20.1Q219.18-22.5 219.18-24L219.18-24Q219.18-27.35 218.13-28.9 217.08-30.45 214.88-30.45L214.88-30.45Q211.43-30.45 209.85-27.43 208.28-24.4 208.28-20.7L208.28-20.7Q208.28-18.25 209.28-16.95 210.28-15.65 212.13-15.65L212.13-15.65ZM228.33 0.6Q226.98 0.6 226.18-0.25 225.38-1.1 225.38-2.4L225.38-2.4Q225.38-3.9 226.38-4.98 227.38-6.05 228.88-6.05L228.88-6.05Q230.23-6.05 231.05-5.18 231.88-4.3 231.88-3.05L231.88-3.05Q231.88-1.55 230.85-0.48 229.83 0.6 228.33 0.6L228.33 0.6ZM250.47-26.9Q252.57-26.9 254.25-26.23 255.92-25.55 257.38-24.05L257.38-24.05 255.02-21.4Q253.97-22.4 252.9-22.85 251.82-23.3 250.47-23.3L250.47-23.3Q247.57-23.3 245.77-21.13 243.97-18.95 243.17-15.75 242.38-12.55 242.38-9.3L242.38-9.3Q242.38-3.15 246.97-3.15L246.97-3.15Q248.42-3.15 249.63-3.63 250.82-4.1 252.32-5.1L252.32-5.1 254.07-2.15Q250.52 0.6 246.57 0.6L246.57 0.6Q242.42 0.6 240.13-2.08 237.82-4.75 237.82-9.55L237.82-9.55Q237.82-13.65 239.17-17.63 240.52-21.6 243.38-24.25 246.22-26.9 250.47-26.9L250.47-26.9ZM268.17 0.6Q263.87 0.6 261.55-2.15 259.22-4.9 259.22-9.7L259.22-9.7Q259.22-13.6 260.52-17.55 261.82-21.5 264.7-24.2 267.57-26.9 272.02-26.9L272.02-26.9Q276.27-26.9 278.6-24.18 280.92-21.45 280.92-16.65L280.92-16.65Q280.92-12.8 279.65-8.83 278.37-4.85 275.5-2.13 272.62 0.6 268.17 0.6L268.17 0.6ZM268.32-2.95Q271.27-2.95 273.07-5.25 274.87-7.55 275.65-10.8 276.42-14.05 276.42-17.1L276.42-17.1Q276.42-23.35 271.82-23.35L271.82-23.35Q268.87-23.35 267.07-21.08 265.27-18.8 264.5-15.58 263.72-12.35 263.72-9.25L263.72-9.25Q263.72-2.95 268.32-2.95L268.32-2.95ZM313.07-26.95Q315.47-26.95 316.92-25.25 318.37-23.55 318.37-20.6L318.37-20.6Q318.37-19.55 318.27-18.95L318.27-18.95 315.57 0 311.22 0 313.87-18.75Q313.97-19.85 313.97-20.2L313.97-20.2Q313.97-23.25 311.67-23.25L311.67-23.25Q310.02-23.25 308.34-21.28 306.67-19.3 304.97-16.1L304.97-16.1 302.62 0 298.27 0 300.92-18.75Q301.02-19.85 301.02-20.25L301.02-20.25Q301.02-21.85 300.42-22.55 299.82-23.25 298.72-23.25L298.72-23.25Q297.07-23.25 295.39-21.28 293.72-19.3 292.02-16.05L292.02-16.05 289.77 0 285.42 0 289.12-26.35 292.87-26.35 292.47-21.45Q294.17-24.1 296.02-25.53 297.87-26.95 300.12-26.95L300.12-26.95Q302.22-26.95 303.64-25.55 305.07-24.15 305.37-21.6L305.37-21.6Q307.12-24.25 308.99-25.6 310.87-26.95 313.07-26.95L313.07-26.95Z" opacity="1" transform="matrix(1,0,0,1,0,0)" fill="#003231" class="wordmark-text-0" data-fill-palette-color="primary" id="text-0"></path></svg></g></svg></g><g transform="matrix(1,0,0,1,163.31020800000002,70.85963777297638)"><svg viewBox="0 0 232.20979199999996 19.697939071485944" height="19.697939071485944" width="232.20979199999996"><g transform="matrix(1,0,0,1,0,0)"><svg width="232.20979199999996" viewBox="4.83 -36.93 560.1999999999999 47.53" height="19.697939071485944" data-palette-color="#003231"><path d="M22.4-9.68L22.4-9.68Q22.4-12.28 21.39-13.69 20.38-15.1 18.7-15.65 17.03-16.2 15.03-16.2L15.03-16.2 9.15-16.2 9.15-3.58 14.83-3.58Q16.1-3.58 17.43-3.83 18.75-4.08 19.89-4.73 21.03-5.38 21.71-6.56 22.4-7.75 22.4-9.68ZM21.03-25.53L21.03-25.53Q21.03-28.45 19.21-29.69 17.4-30.93 14.28-30.93L14.28-30.93 9.15-30.93 9.15-19.78 14.7-19.78Q17.75-19.78 19.39-21.14 21.03-22.5 21.03-25.53ZM26.98-9.83L26.98-9.83Q26.98-7.03 25.86-5.13 24.75-3.23 22.89-2.1 21.03-0.98 18.74-0.49 16.45 0 14.08 0L14.08 0 4.83 0 4.83-34.43 13.3-34.43Q15.58-34.43 17.74-34.01 19.9-33.6 21.64-32.61 23.38-31.63 24.43-29.95 25.48-28.28 25.48-25.75L25.48-25.75Q25.48-23.53 24.56-21.99 23.65-20.45 22.19-19.53 20.73-18.6 19.07-18.23L19.07-18.23Q21-17.93 22.81-17.06 24.63-16.2 25.8-14.46 26.98-12.73 26.98-9.83ZM35.02-26.33L39.22-26.33 39.22-7.68Q39.22-5.08 40.3-3.93 41.37-2.78 43.65-2.78L43.65-2.78Q45.82-2.78 47.76-4.01 49.7-5.25 50.77-6.95L50.77-6.95 50.77-26.33 54.97-26.33 54.97 0 51.4 0 51.05-3.55Q49.5-1.55 47.22-0.49 44.95 0.58 42.62 0.58L42.62 0.58Q38.8 0.58 36.91-1.46 35.02-3.5 35.02-7.18L35.02-7.18 35.02-26.33ZM82.57-26.33L86.92-26.33 77.67 0.18Q76.75 2.85 75.33 5.08 73.92 7.3 71.66 8.76 69.4 10.23 65.92 10.58L65.92 10.58 65.27 7.23Q68 6.78 69.57 5.85 71.15 4.93 72.06 3.48 72.97 2.02 73.67 0L73.67 0 72.27 0 63.07-26.33 67.57-26.33 75.12-3.2 82.57-26.33ZM135.04-26.88L135.04-26.88Q138.77-26.88 141.28-25.19 143.79-23.5 145.05-20.43 146.31-17.35 146.31-13.18L146.31-13.18Q146.31-9.15 145.02-6.05 143.72-2.95 141.2-1.19 138.69 0.58 134.99 0.58L134.99 0.58Q131.29 0.58 128.77-1.13 126.24-2.83 124.95-5.91 123.67-9 123.67-13.13L123.67-13.13Q123.67-17.2 124.97-20.3 126.27-23.4 128.8-25.14 131.34-26.88 135.04-26.88ZM135.04-23.45L135.04-23.45Q131.64-23.45 129.9-20.94 128.17-18.43 128.17-13.13L128.17-13.13Q128.17-7.93 129.88-5.4 131.59-2.88 134.99-2.88L134.99-2.88Q138.39-2.88 140.1-5.4 141.81-7.93 141.81-13.18L141.81-13.18Q141.81-18.43 140.12-20.94 138.42-23.45 135.04-23.45ZM168.91 0L155.26 0 155.26-3.23 159.36-3.23 159.36-23.1 155.26-23.1 155.26-26.33 162.56-26.33 163.34-20.1Q164.86-23.35 167.04-25.13 169.21-26.9 172.79-26.9L172.79-26.9Q173.89-26.9 174.75-26.74 175.61-26.58 176.51-26.33L176.51-26.33 175.29-22.58Q174.46-22.8 173.79-22.91 173.11-23.03 172.24-23.03L172.24-23.03Q169.21-23.03 167.04-20.88 164.86-18.73 163.56-14.38L163.56-14.38 163.56-3.23 168.91-3.23 168.91 0ZM175.91-17.43L172.46-17.43 172.46-23.15 172.89-26.33 176.51-26.33 175.91-17.43ZM236.81-9.53L236.81-9.53Q236.81-6.58 235.33-4.29 233.86-2 231.06-0.71 228.26 0.58 224.23 0.58L224.23 0.58Q220.46 0.58 217.4-0.58 214.33-1.73 212.16-3.83L212.16-3.83 214.73-6.73Q216.53-5.05 218.86-4.06 221.18-3.08 224.31-3.08L224.31-3.08Q226.41-3.08 228.23-3.76 230.06-4.45 231.18-5.86 232.31-7.28 232.31-9.45L232.31-9.45Q232.31-11.13 231.66-12.3 231.01-13.48 229.36-14.39 227.71-15.3 224.76-16.18L224.76-16.18Q221.36-17.18 218.87-18.44 216.38-19.7 215.02-21.55 213.66-23.4 213.66-26.13L213.66-26.13Q213.66-28.7 215.08-30.7 216.51-32.7 219.02-33.84 221.53-34.98 224.81-34.98L224.81-34.98Q228.38-34.98 231.02-33.96 233.66-32.95 235.81-31.05L235.81-31.05 233.26-28.23Q231.41-29.88 229.28-30.61 227.16-31.35 224.96-31.35L224.96-31.35Q223.08-31.35 221.52-30.79 219.96-30.23 219.02-29.11 218.08-28 218.08-26.28L218.08-26.28Q218.08-24.8 218.88-23.73 219.68-22.65 221.58-21.76 223.48-20.88 226.76-19.9L226.76-19.9Q229.43-19.13 231.72-17.96 234.01-16.8 235.41-14.81 236.81-12.83 236.81-9.53ZM266-11.68L248.31-11.68Q248.43-8.63 249.48-6.69 250.53-4.75 252.26-3.84 253.98-2.93 256-2.93L256-2.93Q258.03-2.93 259.67-3.53 261.31-4.13 263.03-5.3L263.03-5.3 265-2.53Q263.16-1.07 260.79-0.25 258.43 0.58 255.96 0.58L255.96 0.58Q252.13 0.58 249.43-1.15 246.73-2.88 245.32-5.96 243.91-9.05 243.91-13.13L243.91-13.13Q243.91-17.13 245.33-20.23 246.76-23.33 249.33-25.1 251.91-26.88 255.41-26.88L255.41-26.88Q258.73-26.88 261.13-25.31 263.53-23.75 264.82-20.86 266.11-17.98 266.11-13.98L266.11-13.98Q266.11-13.3 266.08-12.71 266.06-12.13 266-11.68L266-11.68ZM255.46-23.43L255.46-23.43Q252.53-23.43 250.57-21.35 248.61-19.28 248.33-14.93L248.33-14.93 262.06-14.93Q261.98-19.15 260.21-21.29 258.43-23.43 255.46-23.43ZM272.98-36.93L285.25-36.93 285.25-6.5Q285.25-4.55 286.47-3.74 287.68-2.93 289.6-2.93L289.6-2.93Q290.8-2.93 291.88-3.18 292.95-3.43 294.03-3.85L294.03-3.85 295.15-0.78Q294.08-0.25 292.49 0.16 290.9 0.58 288.9 0.58L288.9 0.58Q285.4 0.58 283.23-1.36 281.05-3.3 281.05-6.73L281.05-6.73 281.05-33.6 272.98-33.6 272.98-36.93ZM302.98-36.93L315.25-36.93 315.25-6.5Q315.25-4.55 316.46-3.74 317.68-2.93 319.6-2.93L319.6-2.93Q320.8-2.93 321.88-3.18 322.95-3.43 324.03-3.85L324.03-3.85 325.15-0.78Q324.08-0.25 322.49 0.16 320.9 0.58 318.9 0.58L318.9 0.58Q315.4 0.58 313.23-1.36 311.05-3.3 311.05-6.73L311.05-6.73 311.05-33.6 302.98-33.6 302.98-36.93ZM377.87-34.98L377.87-34.98Q381.25-34.98 383.52-34.13 385.8-33.27 387.85-31.63L387.85-31.63 385.42-28.8Q383.8-30.18 381.98-30.76 380.17-31.35 378.2-31.35L378.2-31.35Q375.37-31.35 372.97-30.01 370.57-28.68 369.11-25.59 367.65-22.5 367.65-17.23L367.65-17.23Q367.65-12.1 369.03-9 370.42-5.9 372.8-4.53 375.17-3.15 378.1-3.15L378.1-3.15Q381-3.15 382.86-4.03 384.72-4.9 386.1-6.03L386.1-6.03 388.35-3.18Q386.77-1.65 384.25-0.54 381.72 0.58 378.05 0.58L378.05 0.58Q373.87 0.58 370.48-1.48 367.1-3.53 365.12-7.49 363.15-11.45 363.15-17.23L363.15-17.23Q363.15-23.03 365.16-26.98 367.17-30.93 370.53-32.95 373.9-34.98 377.87-34.98ZM405.02-26.88L405.02-26.88Q408.74-26.88 411.26-25.19 413.77-23.5 415.03-20.43 416.29-17.35 416.29-13.18L416.29-13.18Q416.29-9.15 414.99-6.05 413.69-2.95 411.18-1.19 408.67 0.58 404.97 0.58L404.97 0.58Q401.27 0.58 398.74-1.13 396.22-2.83 394.93-5.91 393.64-9 393.64-13.13L393.64-13.13Q393.64-17.2 394.94-20.3 396.24-23.4 398.78-25.14 401.32-26.88 405.02-26.88ZM405.02-23.45L405.02-23.45Q401.62-23.45 399.88-20.94 398.14-18.43 398.14-13.13L398.14-13.13Q398.14-7.93 399.86-5.4 401.57-2.88 404.97-2.88L404.97-2.88Q408.37-2.88 410.08-5.4 411.79-7.93 411.79-13.18L411.79-13.18Q411.79-18.43 410.09-20.94 408.39-23.45 405.02-23.45ZM424.99-26.33L429.19-26.33 429.19-7.68Q429.19-5.08 430.27-3.93 431.34-2.78 433.62-2.78L433.62-2.78Q435.79-2.78 437.73-4.01 439.67-5.25 440.74-6.95L440.74-6.95 440.74-26.33 444.94-26.33 444.94 0 441.37 0 441.02-3.55Q439.47-1.55 437.19-0.49 434.92 0.58 432.59 0.58L432.59 0.58Q428.77 0.58 426.88-1.46 424.99-3.5 424.99-7.18L424.99-7.18 424.99-26.33ZM466.76-26.88L466.76-26.88Q470.26-26.88 472.35-25.18 474.44-23.48 475.36-20.39 476.29-17.3 476.29-13.18L476.29-13.18Q476.29-9.2 475.18-6.09 474.06-2.98 471.81-1.2 469.56 0.58 466.14 0.58L466.14 0.58Q461.81 0.58 459.19-2.48L459.19-2.48 459.19 10.08 454.99 10.6 454.99-26.33 458.56-26.33 458.91-22.65Q460.36-24.68 462.38-25.78 464.39-26.88 466.76-26.88ZM465.76-23.5L465.76-23.5Q463.59-23.5 461.93-22.19 460.26-20.88 459.19-19.28L459.19-19.28 459.19-6.23Q460.21-4.7 461.78-3.81 463.34-2.93 465.21-2.93L465.21-2.93Q468.49-2.93 470.14-5.43 471.79-7.93 471.79-13.2L471.79-13.2Q471.79-16.65 471.14-18.94 470.49-21.23 469.16-22.36 467.84-23.5 465.76-23.5ZM495.01-26.88L495.01-26.88Q498.74-26.88 501.25-25.19 503.76-23.5 505.02-20.43 506.29-17.35 506.29-13.18L506.29-13.18Q506.29-9.15 504.99-6.05 503.69-2.95 501.17-1.19 498.66 0.58 494.96 0.58L494.96 0.58Q491.26 0.58 488.74-1.13 486.21-2.83 484.92-5.91 483.64-9 483.64-13.13L483.64-13.13Q483.64-17.2 484.94-20.3 486.24-23.4 488.77-25.14 491.31-26.88 495.01-26.88ZM495.01-23.45L495.01-23.45Q491.61-23.45 489.87-20.94 488.14-18.43 488.14-13.13L488.14-13.13Q488.14-7.93 489.85-5.4 491.56-2.88 494.96-2.88L494.96-2.88Q498.36-2.88 500.07-5.4 501.79-7.93 501.79-13.18L501.79-13.18Q501.79-18.43 500.09-20.94 498.39-23.45 495.01-23.45ZM519.18 0L514.98 0 514.98-26.33 518.56-26.33 518.88-22.68Q520.48-24.7 522.89-25.79 525.31-26.88 527.58-26.88L527.58-26.88Q531.46-26.88 533.22-24.83 534.98-22.78 534.98-19.13L534.98-19.13 534.98 0 530.78 0 530.78-16.03Q530.78-18.73 530.48-20.39 530.18-22.05 529.23-22.81 528.28-23.58 526.28-23.58L526.28-23.58Q524.73-23.58 523.37-22.9 522.01-22.23 520.95-21.21 519.88-20.2 519.18-19.18L519.18-19.18 519.18 0ZM553.93-2.9L553.93-2.9Q556.95-2.9 558.72-4.04 560.48-5.18 560.48-7.08L560.48-7.08Q560.48-8.28 560.04-9.15 559.6-10.03 558.25-10.73 556.9-11.43 554.1-12.13L554.1-12.13Q551.38-12.8 549.37-13.69 547.35-14.58 546.24-16 545.13-17.43 545.13-19.7L545.13-19.7Q545.13-21.93 546.39-23.54 547.65-25.15 549.9-26.01 552.15-26.88 555.13-26.88L555.13-26.88Q558.3-26.88 560.67-26.04 563.03-25.2 564.68-23.98L564.68-23.98 562.83-21.13Q561.33-22.15 559.53-22.81 557.73-23.48 555.18-23.48L555.18-23.48Q552.08-23.48 550.78-22.51 549.48-21.55 549.48-20.03L549.48-20.03Q549.48-18.88 550.12-18.11 550.75-17.35 552.28-16.74 553.8-16.13 556.48-15.4L556.48-15.4Q559.05-14.73 560.97-13.78 562.88-12.83 563.95-11.28 565.03-9.73 565.03-7.28L565.03-7.28Q565.03-4.48 563.43-2.74 561.83-1 559.29-0.21 556.75 0.58 553.93 0.58L553.93 0.58Q550.35 0.58 547.84-0.46 545.33-1.5 543.63-2.98L543.63-2.98 546.03-5.75Q547.58-4.48 549.59-3.69 551.6-2.9 553.93-2.9Z" opacity="1" transform="matrix(1,0,0,1,0,0)" fill="#003231" class="slogan-text-1" data-fill-palette-color="secondary" id="text-1"></path></svg></g></svg></g></svg></g></svg></g><g><svg viewBox="0 0 125.15057119904695 125.15057119904695" height="125.15057119904695" width="125.15057119904695"><g><svg xmlns="http://www.w3.org/2000/svg" xmlns:xlink="http://www.w3.org/1999/xlink" version="1.1" x="0" y="0" viewBox="14.207 14.166 115.668 115.668" enable-background="new 0 0 144.083 144" xml:space="preserve" height="125.15057119904695" width="125.15057119904695" class="icon-icon-0" data-fill-palette-color="accent" id="icon-0"><rect x="55.679" y="60.205" width="4" height="4.735" fill="#3d9970" data-fill-palette-color="accent"></rect><path d="M80.116 65.941c0-3.469-2.879-6.314-6.316-6.314-3.468 0-6.314 2.811-6.314 6.314 0 3.54 2.846 6.314 6.314 6.314C77.237 72.255 80.116 69.446 80.116 65.941zM71.06 65.941c0-1.526 1.249-2.741 2.74-2.741 1.492 0 2.74 1.214 2.74 2.741 0 1.527-1.248 2.741-2.74 2.741C72.309 68.682 71.06 67.468 71.06 65.941z" fill="#3d9970" data-fill-palette-color="accent"></path><rect x="55.679" y="79.145" width="4" height="4.734" fill="#3d9970" data-fill-palette-color="accent"></rect><rect x="67.562" y="70.284" transform="matrix(0.4696 -0.8829 0.8829 0.4696 -20.4141 110.5883)" width="28.544" height="4" fill="#3d9970" data-fill-palette-color="accent"></rect><rect x="55.679" y="69.674" width="4" height="4.734" fill="#3d9970" data-fill-palette-color="accent"></rect><path d="M90.096 72.048c-3.469-0.013-6.326 2.788-6.338 6.292-0.014 3.539 2.822 6.326 6.293 6.34 3.436 0.012 6.324-2.789 6.338-6.293C96.401 74.916 93.532 72.06 90.096 72.048zM90.073 81.105c-1.49 0-2.74-1.215-2.74-2.742s1.25-2.74 2.74-2.74c1.492 0 2.742 1.213 2.742 2.74S91.565 81.105 90.073 81.105z" fill="#3d9970" data-fill-palette-color="accent"></path><path d="M72.04 14.166C40.1 14.166 14.207 40.059 14.207 72c0 31.94 25.893 57.834 57.833 57.834 31.941 0 57.835-25.895 57.835-57.834C129.875 40.059 103.981 14.166 72.04 14.166zM106.159 85.496c0 3.102-2.877 5.617-6.424 5.617H59.679v-2.5h-4v2.5H44.348c-3.548 0-6.425-2.516-6.425-5.617v-26.91c0-3.101 2.877-5.616 6.425-5.616h11.331v2.5h4v-2.5h40.056c3.547 0 6.424 2.515 6.424 5.616V85.496z" fill="#3d9970" data-fill-palette-color="accent"></path></svg></g></svg></g></svg></g><defs></defs></svg><rect width="395.52" height="89.5259982181223" fill="none" stroke="none" visibility="hidden"></rect></g></svg></g></svg>